<?xml version="1.0" standalone="no"?>
<!DOCTYPE svg PUBLIC "-//W3C//DTD SVG 20010904//EN"
 "http://www.w3.org/TR/2001/REC-SVG-20010904/DTD/svg10.dtd">
<svg version="1.0" xmlns="http://www.w3.org/2000/svg"
 width="474.000000pt" height="474.000000pt" viewBox="0 0 474.000000 474.000000"
 preserveAspectRatio="xMidYMid meet">

<g transform="translate(0.000000,474.000000) scale(0.100000,-0.100000)"
fill="#000000" stroke="none">
<path d="M0 2370 l0 -2370 2370 0 2370 0 0 2370 0 2370 -2370 0 -2370 0 0
-2370z m2907 1179 c111 -41 179 -106 231 -217 24 -50 27 -69 27 -157 0 -93 -2
-105 -32 -166 -58 -117 -154 -193 -281 -223 -53 -13 -55 -14 -27 -20 121 -27
179 -59 249 -138 68 -75 91 -142 91 -263 0 -87 -3 -107 -27 -157 -50 -107
-152 -194 -263 -223 -79 -20 -140 -19 -216 4 -295 92 -381 454 -159 670 49 48
123 87 183 97 84 14 27 24 -138 24 l-175 0 0 395 0 395 240 0 c220 0 244 -2
297 -21z m-1243 -947 c3 -5 -1 -9 -9 -9 -8 0 -12 4 -9 9 3 4 7 8 9 8 2 0 6 -4
9 -8z m-87 -234 c-3 -8 -6 -5 -6 6 -1 11 2 17 5 13 3 -3 4 -12 1 -19z m84
-235 c13 -16 12 -17 -3 -4 -10 7 -18 15 -18 17 0 8 8 3 21 -13z m84 -83 c10
-11 16 -20 13 -20 -3 0 -13 9 -23 20 -10 11 -16 20 -13 20 3 0 13 -9 23 -20z
m625 -283 c0 -300 -16 -367 -112 -473 -168 -183 -477 -163 -617 40 -131 190
-73 456 124 572 87 50 125 57 365 63 124 3 228 5 233 3 4 -2 7 -94 7 -205z"/>
</g>
</svg>
